<svg xmlns="http://www.w3.org/2000/svg" style="margin:auto;background:transparent;display:block;" width="271" height="250" preserveAspectRatio="xMidYMid">
    <g style="transform-origin: 135.5px 125px; transform: scale(0.8375);">
        <g transform="translate(135.5,125)">
            <g transform="translate(0,0)">
                <g class="path" style="transform: translate(-10px) rotate(-20deg); transform-origin: -113.72px -6.83292px; animation: 1s linear -0.565714s infinite normal forwards running metronome-859acd28-247a-4352-8416-55dae097bbcc;">
                    <path d="M33.52 1.12L33.52 1.12Q20.72 1.04 12.76-6.96L12.76-6.96L12.76-6.96Q4.80-14.96 4.80-28L4.80-28L4.80-28Q4.80-41.04 12.76-49.08L12.76-49.08L12.76-49.08Q20.72-57.12 33.52-57.12L33.52-57.12L33.52-57.12Q44.56-57.12 52.96-51.68L52.96-51.68L54.56-40.40L53.84-40.40L53.84-40.40Q52.08-47.28 46.76-51L46.76-51L46.76-51Q41.44-54.72 33.52-54.72L33.52-54.72L33.52-54.72Q23.36-54.72 17.08-47.36L17.08-47.36L17.08-47.36Q10.80-40 10.80-28L10.80-28L10.80-28Q10.80-16 17.08-8.68L17.08-8.68L17.08-8.68Q23.36-1.36 33.52-1.28L33.52-1.28L33.52-1.28Q38.72-1.28 43.40-3.12L43.40-3.12L43.40-3.12Q48.08-4.96 51.60-8.24L51.60-8.24L51.60-22.40L51.60-22.40Q51.60-24.16 50.52-25.08L50.52-25.08L50.52-25.08Q49.44-26 47.52-26L47.52-26L46.24-26L46.24-26.80L61.92-26.80L61.92-26L60.72-26L60.72-26Q58.72-26 57.68-25.08L57.68-25.08L57.68-25.08Q56.64-24.16 56.72-22.40L56.72-22.40L56.72-9.20L56.72-9.20Q54.64-6.48 51.76-4.32L51.76-4.32L51.76-4.32Q48.88-2.16 44.04-0.52L44.04-0.52L44.04-0.52Q39.20 1.12 33.52 1.12L33.52 1.12" fill="#51cacc" stroke="none" stroke-width="none" transform="translate(-147.07998061180115,21.16708300045558)" style="fill: rgb(81, 202, 204);"></path>
                </g>
                <g class="path" style="transform: translate(-10px) rotate(-20deg); transform-origin: -58.32px -3.39292px; animation: 1s linear -0.471429s infinite normal forwards running metronome-859acd28-247a-4352-8416-55dae097bbcc;">
                    <path d="M115.04-0.80L115.04-0.80L115.68-0.80L115.68 0L99.28 0L99.28-0.80L99.92-0.80L99.92-0.80Q101.44-0.80 102.24-1.84L102.24-1.84L102.24-1.84Q103.04-2.88 103.04-3.80L103.04-3.80L103.04-3.80Q103.04-4.72 102.72-5.60L102.72-5.60L98.32-16.24L78.08-16.24L73.68-5.84L73.68-5.84Q73.28-4.80 73.28-3.88L73.28-3.88L73.28-3.88Q73.28-2.96 74.08-1.88L74.08-1.88L74.08-1.88Q74.88-0.80 76.48-0.80L76.48-0.80L77.12-0.80L77.12 0L61.84 0L61.84-0.80L62.48-0.80L62.48-0.80Q64.16-0.80 65.88-1.96L65.88-1.96L65.88-1.96Q67.60-3.12 68.72-5.44L68.72-5.44L68.72-5.44Q86.24-42.88 86.96-44.64L86.96-44.64L86.96-44.64Q88.32-48 88.40-49.12L88.40-49.12L89.12-49.12L108.88-5.44L108.88-5.44Q111.20-0.80 115.04-0.80zM88.40-40.56L79.12-18.64L97.36-18.64L88.40-40.56" fill="#51cacc" stroke="none" stroke-width="none" transform="translate(-147.07998061180115,21.16708300045558)" style="fill: rgb(157, 248, 113);"></path>
                </g>
                <g class="path" style="transform: translate(-10px) rotate(-20deg); transform-origin: 3.36002px -2.83292px; animation: 1s linear -0.377143s infinite normal forwards running metronome-859acd28-247a-4352-8416-55dae097bbcc;">
                    <path d="M183.76-0.80L183.76-0.80L184.96-0.80L184.96 0L168.32 0L168.32-0.72L169.52-0.72L169.52-0.72Q170.72-0.72 171.64-1.64L171.64-1.64L171.64-1.64Q172.56-2.56 172.40-3.84L172.40-3.84L168.24-36.80L153.12-7.04L153.12-7.04Q150.88-2.16 150.32 1.12L150.32 1.12L149.52 1.12L130.24-36.08L126.64-3.84L126.64-3.84Q126.48-2.64 127.40-1.68L127.40-1.68L127.40-1.68Q128.32-0.72 129.60-0.72L129.60-0.72L130.72-0.72L130.72 0L115.92 0L115.92-0.80L117.12-0.80L117.12-0.80Q120-0.80 121.60-2.88L121.60-2.88L121.60-2.88Q122.40-3.92 122.56-5.36L122.56-5.36L128.80-49.12L129.60-49.12L150.72-8.48L171.12-49.12L171.84-49.12L178.32-5.20L178.32-5.20Q178.64-3.20 180.16-2L180.16-2L180.16-2Q181.68-0.80 183.76-0.80" fill="#51cacc" stroke="none" stroke-width="none" transform="translate(-147.07998061180115,21.16708300045558)" style="fill: rgb(224, 255, 119);"></path>
                </g>
                <g class="path" style="transform: translate(-10px) rotate(-20deg); transform-origin: 61.28px -3.47292px; animation: 1s linear -0.282857s infinite normal forwards running metronome-859acd28-247a-4352-8416-55dae097bbcc;">
                    <path d="M189.92-0.80L191.04-0.80L191.04-0.80Q192.96-0.80 194.28-2.04L194.28-2.04L194.28-2.04Q195.60-3.28 195.68-5.04L195.68-5.04L195.68-43.04L195.68-43.04Q195.68-44.80 194.32-46L194.32-46L194.32-46Q192.96-47.20 191.04-47.20L191.04-47.20L189.92-47.20L189.92-48L213.28-48L213.28-48Q216.56-48 219.04-48.48L219.04-48.48L219.04-48.48Q221.52-48.96 222.24-49.28L222.24-49.28L222.24-40.16L221.36-40.24L221.36-41.44L221.36-41.44Q221.36-43.12 220.24-44.32L220.24-44.32L220.24-44.32Q219.12-45.52 217.36-45.52L217.36-45.52L200.72-45.52L200.72-25.20L214.40-25.20L214.40-25.20Q216.00-25.20 216.84-26.16L216.84-26.16L216.84-26.16Q217.68-27.12 217.68-28.56L217.68-28.56L217.68-29.60L218.56-29.60L218.56-18.40L217.68-18.40L217.68-19.44L217.68-19.44Q217.68-21.68 216.00-22.48L216.00-22.48L216.00-22.48Q215.36-22.72 214.64-22.80L214.64-22.80L200.72-22.80L200.72-2.48L213.28-2.48L213.28-2.48Q216.96-2.48 219.48-3.76L219.48-3.76L219.48-3.76Q222-5.04 223.32-6.80L223.32-6.80L223.32-6.80Q224.64-8.56 226-11.44L226-11.44L226.80-11.44L222.40 0L189.92 0L189.92-0.80" fill="#51cacc" stroke="none" stroke-width="none" transform="translate(-147.07998061180115,21.16708300045558)" style="fill: rgb(222, 157, 214);"></path>
                </g>
                <g class="path" style="transform: translate(-10px) rotate(-20deg); transform-origin: 100.64px -2.83292px; animation: 1s linear -0.188571s infinite normal forwards running metronome-859acd28-247a-4352-8416-55dae097bbcc;">
                    <path d="M233.84-2.64L233.84-2.64L233.84-2.64Q233.60-3.60 233.60-6.56L233.60-6.56L233.60-6.56Q233.60-9.52 234.64-12.56L234.64-12.56L235.60-12.56L235.60-12.56Q235.52-11.84 235.52-11.12L235.52-11.12L235.52-11.12Q235.52-6.80 238.36-4.04L238.36-4.04L238.36-4.04Q241.20-1.28 246.24-1.28L246.24-1.28L246.24-1.28Q251.52-1.28 254.48-3.72L254.48-3.72L254.48-3.72Q257.44-6.16 257.44-10.04L257.44-10.04L257.44-10.04Q257.44-13.92 254.56-16.48L254.56-16.48L238.56-28.80L238.56-28.80Q234.72-32.08 234.72-37.60L234.72-37.60L234.72-37.60Q234.72-40.72 236.44-43.36L236.44-43.36L236.44-43.36Q238.16-46 241.24-47.56L241.24-47.56L241.24-47.56Q244.32-49.12 248.48-49.12L248.48-49.12L248.48-49.12Q252.64-49.12 255.84-48.40L255.84-48.40L258.48-48.40L258.64-39.68L257.76-39.68L257.76-39.68Q257.76-43.04 255.44-44.88L255.44-44.88L255.44-44.88Q253.12-46.72 248.80-46.72L248.80-46.72L248.80-46.72Q244.48-46.72 241.68-44.52L241.68-44.52L241.68-44.52Q238.88-42.32 238.88-38.84L238.88-38.84L238.88-38.84Q238.88-35.36 242-32.80L242-32.80L258.16-20.32L258.16-20.32Q261.84-17.28 261.84-11.84L261.84-11.84L261.84-11.84Q261.84-6.40 257.72-2.64L257.72-2.64L257.72-2.64Q253.60 1.12 247.68 1.12L247.68 1.12L247.68 1.12Q243.76 1.12 239.84 0.16L239.84 0.16L239.84 0.16Q235.92-0.80 233.84-2.64" fill="#51cacc" stroke="none" stroke-width="none" transform="translate(-147.07998061180115,21.16708300045558)" style="fill: rgb(255, 112, 142);"></path>
                </g>
                <g class="path" style="transform: translate(-10px) rotate(-20deg); transform-origin: 148.24px -13.7129px; animation: 1s linear -0.0942857s infinite normal forwards running metronome-859acd28-247a-4352-8416-55dae097bbcc;">
                    <path d="M298.32-56.16L297.36-32.24L295.68-13.60L294.88-13.60L293.28-32.24L292.32-56.16L298.32-56.16" fill="#51cacc" stroke="none" stroke-width="none" transform="translate(-147.07998061180115,21.16708300045558)" style="fill: rgb(81, 202, 204);"></path>
                </g>
                <g class="path" style="transform: translate(-10px) rotate(-20deg); transform-origin: 148.28px 17.8871px; animation: 1s linear 0s infinite normal forwards running metronome-859acd28-247a-4352-8416-55dae097bbcc;">
                    <path d="M297.92-0.72L297.92-0.72L297.92-0.72Q296.88 0.32 295.36 0.32L295.36 0.32L295.36 0.32Q293.84 0.32 292.80-0.72L292.80-0.72L292.80-0.72Q291.76-1.76 291.76-3.28L291.76-3.28L291.76-3.28Q291.76-4.80 292.80-5.84L292.80-5.84L292.80-5.84Q293.84-6.88 295.36-6.88L295.36-6.88L295.36-6.88Q296.88-6.88 297.92-5.84L297.92-5.84L297.92-5.84Q298.96-4.80 298.96-3.28L298.96-3.28L298.96-3.28Q298.96-1.76 297.92-0.72" fill="#51cacc" stroke="none" stroke-width="none" transform="translate(-147.07998061180115,21.16708300045558)" style="fill: rgb(157, 248, 113);"></path>
                </g>
            </g>
        </g>
    </g>
</svg>