<!-- <svg xmlns="http://www.w3.org/2000/svg" style="margin:auto;background:rgba(NaN, NaN, NaN, 0);display:block;" width="280" height="250" preserveAspectRatio="xMidYMid">
    <style type="text/css">
  text {
    text-anchor: middle; font-size: 48px; opacity: 0;
  }
</style>
    <g style="transform-origin:140px 125px;transform:scale(1)">
        <g transform="translate(140,125)">
            <g class="icon-out" style="animation-delay: 0.225448s;">
                <g class="icon-in" style="transform-origin: 5.81688px -12.4022px; opacity: 1; animation: 1s linear -0.482016s infinite normal forwards running;">
                    <path d="M20,10c-2.1-0.1-4.2-0.6-6.3-1c-1.4-0.3-2.5-1.3-2.7-2.7c-0.4-2.1-0.9-4.3-1-6.4c0,2.1-0.6,4.2-1,6.4 C8.8,7.8,7.8,8.8,6.4,9.1C4.2,9.5,2.1,10,0,10.1c2.1,0,4.2,0.6,6.4,1c1.4,0.3,2.5,1.3,2.7,2.7c0.4,2.1,0.9,4.2,1,6.3h0 c0.1-2.1,0.6-4.2,1-6.3c0.3-1.4,1.3-2.5,2.7-2.7C15.8,10.6,17.9,10.1,20,10L20,10z" transform="translate(-0.837581738511048,-19.05662947485421) scale(0.6654462155209988)" opacity="0.4" fill="#e8b600"></path>
                </g>
            </g>
            <g class="icon-out" style="animation-delay: 0.356669s;">
                <g class="icon-in" style="transform-origin: -35.3668px 1.55386px; opacity: 1; animation: 1s linear -0.408339s infinite normal forwards running;">
                    <path d="M20,10c-2.1-0.1-4.2-0.6-6.3-1c-1.4-0.3-2.5-1.3-2.7-2.7c-0.4-2.1-0.9-4.3-1-6.4c0,2.1-0.6,4.2-1,6.4 C8.8,7.8,7.8,8.8,6.4,9.1C4.2,9.5,2.1,10,0,10.1c2.1,0,4.2,0.6,6.4,1c1.4,0.3,2.5,1.3,2.7,2.7c0.4,2.1,0.9,4.2,1,6.3h0 c0.1-2.1,0.6-4.2,1-6.3c0.3-1.4,1.3-2.5,2.7-2.7C15.8,10.6,17.9,10.1,20,10L20,10z" transform="translate(-43.82393621242002,-6.903242178343695) scale(0.8457101193157899)" opacity="0.4181818181818182" fill="#e8b600"></path>
                </g>
            </g>
            <g class="icon-out" style="animation-delay: 0.329483s;">
                <g class="icon-in" style="transform-origin: -67.3062px -5.73395px; opacity: 1; animation: 1s linear -0.24642s infinite normal forwards running;">
                    <path d="M20,10c-2.1-0.1-4.2-0.6-6.3-1c-1.4-0.3-2.5-1.3-2.7-2.7c-0.4-2.1-0.9-4.3-1-6.4c0,2.1-0.6,4.2-1,6.4 C8.8,7.8,7.8,8.8,6.4,9.1C4.2,9.5,2.1,10,0,10.1c2.1,0,4.2,0.6,6.4,1c1.4,0.3,2.5,1.3,2.7,2.7c0.4,2.1,0.9,4.2,1,6.3h0 c0.1-2.1,0.6-4.2,1-6.3c0.3-1.4,1.3-2.5,2.7-2.7C15.8,10.6,17.9,10.1,20,10L20,10z" transform="translate(-73.14600312838745,-11.573802025339594) scale(0.5839852539812976)" opacity="0.4363636363636364" fill="#e8b600"></path>
                </g>
            </g>
            <g class="icon-out" style="animation-delay: 0.0899584s;">
                <g class="icon-in" style="transform-origin: 61.6974px 25.209px; opacity: 1; animation: 1s linear -0.475834s infinite normal forwards running;">
                    <path d="M20,10c-2.1-0.1-4.2-0.6-6.3-1c-1.4-0.3-2.5-1.3-2.7-2.7c-0.4-2.1-0.9-4.3-1-6.4c0,2.1-0.6,4.2-1,6.4 C8.8,7.8,7.8,8.8,6.4,9.1C4.2,9.5,2.1,10,0,10.1c2.1,0,4.2,0.6,6.4,1c1.4,0.3,2.5,1.3,2.7,2.7c0.4,2.1,0.9,4.2,1,6.3h0 c0.1-2.1,0.6-4.2,1-6.3c0.3-1.4,1.3-2.5,2.7-2.7C15.8,10.6,17.9,10.1,20,10L20,10z" transform="translate(54.37969211012108,17.891269832793245) scale(0.7317747902000684)" opacity="0.4545454545454546" fill="#e8b600"></path>
                </g>
            </g>
            <g class="icon-out" style="animation-delay: 0.22009s;">
                <g class="icon-in" style="transform-origin: -64.1815px 21.4511px; opacity: 1; animation: 1s linear -0.00624326s infinite normal forwards running;">
                    <path d="M20,10c-2.1-0.1-4.2-0.6-6.3-1c-1.4-0.3-2.5-1.3-2.7-2.7c-0.4-2.1-0.9-4.3-1-6.4c0,2.1-0.6,4.2-1,6.4 C8.8,7.8,7.8,8.8,6.4,9.1C4.2,9.5,2.1,10,0,10.1c2.1,0,4.2,0.6,6.4,1c1.4,0.3,2.5,1.3,2.7,2.7c0.4,2.1,0.9,4.2,1,6.3h0 c0.1-2.1,0.6-4.2,1-6.3c0.3-1.4,1.3-2.5,2.7-2.7C15.8,10.6,17.9,10.1,20,10L20,10z" transform="translate(-70.23810099169546,15.394478768922708) scale(0.6056584538169382)" opacity="0.4727272727272728" fill="#e8b600"></path>
                </g>
            </g>
            <g class="icon-out" style="animation-delay: 0.497152s;">
                <g class="icon-in" style="transform-origin: 75.8575px 14.2446px; opacity: 1; animation: 1s linear -0.481993s infinite normal forwards running;">
                    <path d="M20,10c-2.1-0.1-4.2-0.6-6.3-1c-1.4-0.3-2.5-1.3-2.7-2.7c-0.4-2.1-0.9-4.3-1-6.4c0,2.1-0.6,4.2-1,6.4 C8.8,7.8,7.8,8.8,6.4,9.1C4.2,9.5,2.1,10,0,10.1c2.1,0,4.2,0.6,6.4,1c1.4,0.3,2.5,1.3,2.7,2.7c0.4,2.1,0.9,4.2,1,6.3h0 c0.1-2.1,0.6-4.2,1-6.3c0.3-1.4,1.3-2.5,2.7-2.7C15.8,10.6,17.9,10.1,20,10L20,10z" transform="translate(71.72723370747259,10.114310959924753) scale(0.4130308948424364)" opacity="0.49090909090909096" fill="#e8b600"></path>
                </g>
            </g>
            <g class="icon-out" style="animation-delay: 0.0929438s;">
                <g class="icon-in" style="transform-origin: 45.615px 11.8001px; opacity: 1; animation: 1s linear -0.332532s infinite normal forwards running;">
                    <path d="M20,10c-2.1-0.1-4.2-0.6-6.3-1c-1.4-0.3-2.5-1.3-2.7-2.7c-0.4-2.1-0.9-4.3-1-6.4c0,2.1-0.6,4.2-1,6.4 C8.8,7.8,7.8,8.8,6.4,9.1C4.2,9.5,2.1,10,0,10.1c2.1,0,4.2,0.6,6.4,1c1.4,0.3,2.5,1.3,2.7,2.7c0.4,2.1,0.9,4.2,1,6.3h0 c0.1-2.1,0.6-4.2,1-6.3c0.3-1.4,1.3-2.5,2.7-2.7C15.8,10.6,17.9,10.1,20,10L20,10z" transform="translate(39.349455390786105,5.534564924561924) scale(0.6265552108269887)" opacity="0.5090909090909091" fill="#e8b600"></path>
                </g>
            </g>
            <g class="icon-out" style="animation-delay: 0.353682s;">
                <g class="icon-in" style="transform-origin: -17.5412px -10.5694px; opacity: 1; animation: 1s linear -0.0952427s infinite normal forwards running;">
                    <path d="M20,10c-2.1-0.1-4.2-0.6-6.3-1c-1.4-0.3-2.5-1.3-2.7-2.7c-0.4-2.1-0.9-4.3-1-6.4c0,2.1-0.6,4.2-1,6.4 C8.8,7.8,7.8,8.8,6.4,9.1C4.2,9.5,2.1,10,0,10.1c2.1,0,4.2,0.6,6.4,1c1.4,0.3,2.5,1.3,2.7,2.7c0.4,2.1,0.9,4.2,1,6.3h0 c0.1-2.1,0.6-4.2,1-6.3c0.3-1.4,1.3-2.5,2.7-2.7C15.8,10.6,17.9,10.1,20,10L20,10z" transform="translate(-26.95224220837366,-19.980495334992764) scale(0.9411067430075767)" opacity="0.5272727272727273" fill="#e8b600"></path>
                </g>
            </g>
            <g class="icon-out" style="animation-delay: 0.487687s;">
                <g class="icon-in" style="transform-origin: 23.5748px 1.98741px; opacity: 1; animation: 1s linear -0.267966s infinite normal forwards running;">
                    <path d="M20,10c-2.1-0.1-4.2-0.6-6.3-1c-1.4-0.3-2.5-1.3-2.7-2.7c-0.4-2.1-0.9-4.3-1-6.4c0,2.1-0.6,4.2-1,6.4 C8.8,7.8,7.8,8.8,6.4,9.1C4.2,9.5,2.1,10,0,10.1c2.1,0,4.2,0.6,6.4,1c1.4,0.3,2.5,1.3,2.7,2.7c0.4,2.1,0.9,4.2,1,6.3h0 c0.1-2.1,0.6-4.2,1-6.3c0.3-1.4,1.3-2.5,2.7-2.7C15.8,10.6,17.9,10.1,20,10L20,10z" transform="translate(14.93722841416264,-6.650203230984285) scale(0.8637613082744626)" opacity="0.5454545454545454" fill="#e8b600"></path>
                </g>
            </g>
            <g class="icon-out" style="animation-delay: 0.0546547s;">
                <g class="icon-in" style="transform-origin: 41.0872px 29.9846px; opacity: 1; animation: 1s linear -0.454363s infinite normal forwards running;">
                    <path d="M20,10c-2.1-0.1-4.2-0.6-6.3-1c-1.4-0.3-2.5-1.3-2.7-2.7c-0.4-2.1-0.9-4.3-1-6.4c0,2.1-0.6,4.2-1,6.4 C8.8,7.8,7.8,8.8,6.4,9.1C4.2,9.5,2.1,10,0,10.1c2.1,0,4.2,0.6,6.4,1c1.4,0.3,2.5,1.3,2.7,2.7c0.4,2.1,0.9,4.2,1,6.3h0 c0.1-2.1,0.6-4.2,1-6.3c0.3-1.4,1.3-2.5,2.7-2.7C15.8,10.6,17.9,10.1,20,10L20,10z" transform="translate(31.857744926237125,20.755206835727176) scale(0.9229413195864968)" opacity="0.5636363636363636" fill="#e8b600"></path>
                </g>
            </g>
            <g class="icon-out" style="animation-delay: 0.0673712s;">
                <g class="icon-in" style="transform-origin: -38.3973px -4.29337px; opacity: 1; animation: 1s linear -0.316752s infinite normal forwards running;">
                    <path d="M20,10c-2.1-0.1-4.2-0.6-6.3-1c-1.4-0.3-2.5-1.3-2.7-2.7c-0.4-2.1-0.9-4.3-1-6.4c0,2.1-0.6,4.2-1,6.4 C8.8,7.8,7.8,8.8,6.4,9.1C4.2,9.5,2.1,10,0,10.1c2.1,0,4.2,0.6,6.4,1c1.4,0.3,2.5,1.3,2.7,2.7c0.4,2.1,0.9,4.2,1,6.3h0 c0.1-2.1,0.6-4.2,1-6.3c0.3-1.4,1.3-2.5,2.7-2.7C15.8,10.6,17.9,10.1,20,10L20,10z" transform="translate(-47.59520459814861,-13.49129431074926) scale(0.9197925613182434)" opacity="0.5818181818181818" fill="#e8b600"></path>
                </g>
            </g>
            <g class="icon-out" style="animation-delay: 0.383258s;">
                <g class="icon-in" style="transform-origin: -27.7543px 5.6841px; opacity: 1; animation: 1s linear -0.352282s infinite normal forwards running;">
                    <path d="M20,10c-2.1-0.1-4.2-0.6-6.3-1c-1.4-0.3-2.5-1.3-2.7-2.7c-0.4-2.1-0.9-4.3-1-6.4c0,2.1-0.6,4.2-1,6.4 C8.8,7.8,7.8,8.8,6.4,9.1C4.2,9.5,2.1,10,0,10.1c2.1,0,4.2,0.6,6.4,1c1.4,0.3,2.5,1.3,2.7,2.7c0.4,2.1,0.9,4.2,1,6.3h0 c0.1-2.1,0.6-4.2,1-6.3c0.3-1.4,1.3-2.5,2.7-2.7C15.8,10.6,17.9,10.1,20,10L20,10z" transform="translate(-37.00259185062226,-3.564173690637619) scale(0.9248272572998057)" opacity="0.6" fill="#e8b600"></path>
                </g>
            </g>
            <g class="icon-out" style="animation-delay: 0.00215834s;">
                <g class="icon-in" style="transform-origin: 67.0292px 20.076px; opacity: 1; animation: 1s linear -0.41718s infinite normal forwards running;">
                    <path d="M20,10c-2.1-0.1-4.2-0.6-6.3-1c-1.4-0.3-2.5-1.3-2.7-2.7c-0.4-2.1-0.9-4.3-1-6.4c0,2.1-0.6,4.2-1,6.4 C8.8,7.8,7.8,8.8,6.4,9.1C4.2,9.5,2.1,10,0,10.1c2.1,0,4.2,0.6,6.4,1c1.4,0.3,2.5,1.3,2.7,2.7c0.4,2.1,0.9,4.2,1,6.3h0 c0.1-2.1,0.6-4.2,1-6.3c0.3-1.4,1.3-2.5,2.7-2.7C15.8,10.6,17.9,10.1,20,10L20,10z" transform="translate(61.673599692912454,14.720394342310977) scale(0.5355601396694223)" opacity="0.6181818181818182" fill="#e8b600"></path>
                </g>
            </g>
            <g class="icon-out" style="animation-delay: 0.082572s;">
                <g class="icon-in" style="transform-origin: 3.61259px -10.598px; opacity: 1; animation: 1s linear -0.339164s infinite normal forwards running;">
                    <path d="M20,10c-2.1-0.1-4.2-0.6-6.3-1c-1.4-0.3-2.5-1.3-2.7-2.7c-0.4-2.1-0.9-4.3-1-6.4c0,2.1-0.6,4.2-1,6.4 C8.8,7.8,7.8,8.8,6.4,9.1C4.2,9.5,2.1,10,0,10.1c2.1,0,4.2,0.6,6.4,1c1.4,0.3,2.5,1.3,2.7,2.7c0.4,2.1,0.9,4.2,1,6.3h0 c0.1-2.1,0.6-4.2,1-6.3c0.3-1.4,1.3-2.5,2.7-2.7C15.8,10.6,17.9,10.1,20,10L20,10z" transform="translate(-0.9849184059135752,-15.195551748005537) scale(0.459750339013026)" opacity="0.6363636363636364" fill="#e8b600"></path>
                </g>
            </g>
            <g class="icon-out" style="animation-delay: 0.244125s;">
                <g class="icon-in" style="transform-origin: -88.4043px 21.2899px; opacity: 1; animation: 1s linear -0.406388s infinite normal forwards running;">
                    <path d="M20,10c-2.1-0.1-4.2-0.6-6.3-1c-1.4-0.3-2.5-1.3-2.7-2.7c-0.4-2.1-0.9-4.3-1-6.4c0,2.1-0.6,4.2-1,6.4 C8.8,7.8,7.8,8.8,6.4,9.1C4.2,9.5,2.1,10,0,10.1c2.1,0,4.2,0.6,6.4,1c1.4,0.3,2.5,1.3,2.7,2.7c0.4,2.1,0.9,4.2,1,6.3h0 c0.1-2.1,0.6-4.2,1-6.3c0.3-1.4,1.3-2.5,2.7-2.7C15.8,10.6,17.9,10.1,20,10L20,10z" transform="translate(-97.89222304524799,11.80192415235266) scale(0.9487925532466734)" opacity="0.6545454545454545" fill="#e8b600"></path>
                </g>
            </g>
            <g class="icon-out" style="animation-delay: 0.472932s;">
                <g class="icon-in" style="transform-origin: 31.1448px -7.35394px; opacity: 1; animation: 1s linear -0.070252s infinite normal forwards running;">
                    <path d="M20,10c-2.1-0.1-4.2-0.6-6.3-1c-1.4-0.3-2.5-1.3-2.7-2.7c-0.4-2.1-0.9-4.3-1-6.4c0,2.1-0.6,4.2-1,6.4 C8.8,7.8,7.8,8.8,6.4,9.1C4.2,9.5,2.1,10,0,10.1c2.1,0,4.2,0.6,6.4,1c1.4,0.3,2.5,1.3,2.7,2.7c0.4,2.1,0.9,4.2,1,6.3h0 c0.1-2.1,0.6-4.2,1-6.3c0.3-1.4,1.3-2.5,2.7-2.7C15.8,10.6,17.9,10.1,20,10L20,10z" transform="translate(26.97713445104813,-11.521634947675041) scale(0.41676937468362635)" opacity="0.6727272727272727" fill="#e8b600"></path>
                </g>
            </g>
            <g class="icon-out" style="animation-delay: 0.108622s;">
                <g class="icon-in" style="transform-origin: -23.3518px -6.64933px; opacity: 1; animation: 1s linear -0.0660586s infinite normal forwards running;">
                    <path d="M20,10c-2.1-0.1-4.2-0.6-6.3-1c-1.4-0.3-2.5-1.3-2.7-2.7c-0.4-2.1-0.9-4.3-1-6.4c0,2.1-0.6,4.2-1,6.4 C8.8,7.8,7.8,8.8,6.4,9.1C4.2,9.5,2.1,10,0,10.1c2.1,0,4.2,0.6,6.4,1c1.4,0.3,2.5,1.3,2.7,2.7c0.4,2.1,0.9,4.2,1,6.3h0 c0.1-2.1,0.6-4.2,1-6.3c0.3-1.4,1.3-2.5,2.7-2.7C15.8,10.6,17.9,10.1,20,10L20,10z" transform="translate(-32.087513826111575,-15.385073278065981) scale(0.8735740937983679)" opacity="0.6909090909090909" fill="#e8b600"></path>
                </g>
            </g>
            <g class="icon-out" style="animation-delay: 0.00632386s;">
                <g class="icon-in" style="transform-origin: -88.4632px 17.8679px; opacity: 1; animation: 1s linear -0.486984s infinite normal forwards running;">
                    <path d="M20,10c-2.1-0.1-4.2-0.6-6.3-1c-1.4-0.3-2.5-1.3-2.7-2.7c-0.4-2.1-0.9-4.3-1-6.4c0,2.1-0.6,4.2-1,6.4 C8.8,7.8,7.8,8.8,6.4,9.1C4.2,9.5,2.1,10,0,10.1c2.1,0,4.2,0.6,6.4,1c1.4,0.3,2.5,1.3,2.7,2.7c0.4,2.1,0.9,4.2,1,6.3h0 c0.1-2.1,0.6-4.2,1-6.3c0.3-1.4,1.3-2.5,2.7-2.7C15.8,10.6,17.9,10.1,20,10L20,10z" transform="translate(-98.29381380559465,8.03722279853215) scale(0.983065472141968)" opacity="0.7090909090909091" fill="#e8b600"></path>
                </g>
            </g>
            <g class="icon-out" style="animation-delay: 0.425171s;">
                <g class="icon-in" style="transform-origin: 4.64229px 0.503421px; opacity: 1; animation: 1s linear -0.294228s infinite normal forwards running;">
                    <path d="M20,10c-2.1-0.1-4.2-0.6-6.3-1c-1.4-0.3-2.5-1.3-2.7-2.7c-0.4-2.1-0.9-4.3-1-6.4c0,2.1-0.6,4.2-1,6.4 C8.8,7.8,7.8,8.8,6.4,9.1C4.2,9.5,2.1,10,0,10.1c2.1,0,4.2,0.6,6.4,1c1.4,0.3,2.5,1.3,2.7,2.7c0.4,2.1,0.9,4.2,1,6.3h0 c0.1-2.1,0.6-4.2,1-6.3c0.3-1.4,1.3-2.5,2.7-2.7C15.8,10.6,17.9,10.1,20,10L20,10z" transform="translate(-0.9377164476627726,-5.07658945138015) scale(0.5580010187086804)" opacity="0.7272727272727273" fill="#e8b600"></path>
                </g>
            </g>
            <g class="icon-out" style="animation-delay: 0.255857s;">
                <g class="icon-in" style="transform-origin: -14.3196px 13.571px; opacity: 1; animation: 1s linear -0.0982451s infinite normal forwards running;">
                    <path d="M20,10c-2.1-0.1-4.2-0.6-6.3-1c-1.4-0.3-2.5-1.3-2.7-2.7c-0.4-2.1-0.9-4.3-1-6.4c0,2.1-0.6,4.2-1,6.4 C8.8,7.8,7.8,8.8,6.4,9.1C4.2,9.5,2.1,10,0,10.1c2.1,0,4.2,0.6,6.4,1c1.4,0.3,2.5,1.3,2.7,2.7c0.4,2.1,0.9,4.2,1,6.3h0 c0.1-2.1,0.6-4.2,1-6.3c0.3-1.4,1.3-2.5,2.7-2.7C15.8,10.6,17.9,10.1,20,10L20,10z" transform="translate(-23.494389258669145,4.396233531575429) scale(0.9174756621376408)" opacity="0.7454545454545455" fill="#e8b600"></path>
                </g>
            </g>
            <g class="icon-out" style="animation-delay: 0.0622764s;">
                <g class="icon-in" style="transform-origin: 36.0125px -8.81363px; opacity: 1; animation: 1s linear -0.400471s infinite normal forwards running;">
                    <path d="M20,10c-2.1-0.1-4.2-0.6-6.3-1c-1.4-0.3-2.5-1.3-2.7-2.7c-0.4-2.1-0.9-4.3-1-6.4c0,2.1-0.6,4.2-1,6.4 C8.8,7.8,7.8,8.8,6.4,9.1C4.2,9.5,2.1,10,0,10.1c2.1,0,4.2,0.6,6.4,1c1.4,0.3,2.5,1.3,2.7,2.7c0.4,2.1,0.9,4.2,1,6.3h0 c0.1-2.1,0.6-4.2,1-6.3c0.3-1.4,1.3-2.5,2.7-2.7C15.8,10.6,17.9,10.1,20,10L20,10z" transform="translate(29.653386164803763,-15.172790878015386) scale(0.635915941945205)" opacity="0.7636363636363637" fill="#e8b600"></path>
                </g>
            </g>
            <g class="icon-out" style="animation-delay: 0.0802724s;">
                <g class="icon-in" style="transform-origin: -93.9688px 8.57012px; opacity: 1; animation: 1s linear -0.214733s infinite normal forwards running;">
                    <path d="M20,10c-2.1-0.1-4.2-0.6-6.3-1c-1.4-0.3-2.5-1.3-2.7-2.7c-0.4-2.1-0.9-4.3-1-6.4c0,2.1-0.6,4.2-1,6.4 C8.8,7.8,7.8,8.8,6.4,9.1C4.2,9.5,2.1,10,0,10.1c2.1,0,4.2,0.6,6.4,1c1.4,0.3,2.5,1.3,2.7,2.7c0.4,2.1,0.9,4.2,1,6.3h0 c0.1-2.1,0.6-4.2,1-6.3c0.3-1.4,1.3-2.5,2.7-2.7C15.8,10.6,17.9,10.1,20,10L20,10z" transform="translate(-102.21226547245477,0.3266187471902613) scale(0.8243498735895511)" opacity="0.7818181818181817" fill="#e8b600"></path>
                </g>
            </g>
            <g class="icon-out" style="animation-delay: 0.0827903s;">
                <g class="icon-in" style="transform-origin: 112.921px 3.88647px; opacity: 1; animation: 1s linear -0.163308s infinite normal forwards running;">
                    <path d="M20,10c-2.1-0.1-4.2-0.6-6.3-1c-1.4-0.3-2.5-1.3-2.7-2.7c-0.4-2.1-0.9-4.3-1-6.4c0,2.1-0.6,4.2-1,6.4 C8.8,7.8,7.8,8.8,6.4,9.1C4.2,9.5,2.1,10,0,10.1c2.1,0,4.2,0.6,6.4,1c1.4,0.3,2.5,1.3,2.7,2.7c0.4,2.1,0.9,4.2,1,6.3h0 c0.1-2.1,0.6-4.2,1-6.3c0.3-1.4,1.3-2.5,2.7-2.7C15.8,10.6,17.9,10.1,20,10L20,10z" transform="translate(104.22133749141203,-4.812932060961928) scale(0.8699397189384561)" opacity="0.8" fill="#e8b600"></path>
                </g>
            </g>
            <g class="icon-out" style="animation-delay: 0.493462s;">
                <g class="icon-in" style="transform-origin: -104.43px 11.869px; opacity: 1; animation: 1s linear -0.330993s infinite normal forwards running;">
                    <path d="M20,10c-2.1-0.1-4.2-0.6-6.3-1c-1.4-0.3-2.5-1.3-2.7-2.7c-0.4-2.1-0.9-4.3-1-6.4c0,2.1-0.6,4.2-1,6.4 C8.8,7.8,7.8,8.8,6.4,9.1C4.2,9.5,2.1,10,0,10.1c2.1,0,4.2,0.6,6.4,1c1.4,0.3,2.5,1.3,2.7,2.7c0.4,2.1,0.9,4.2,1,6.3h0 c0.1-2.1,0.6-4.2,1-6.3c0.3-1.4,1.3-2.5,2.7-2.7C15.8,10.6,17.9,10.1,20,10L20,10z" transform="translate(-111.39922392428622,4.899643804306974) scale(0.6969371836112392)" opacity="0.8181818181818182" fill="#e8b600"></path>
                </g>
            </g>
            <g class="icon-out" style="animation-delay: 0.148237s;">
                <g class="icon-in" style="transform-origin: 27.7747px 0.73759px; opacity: 1; animation: 1s linear -0.314875s infinite normal forwards running;">
                    <path d="M20,10c-2.1-0.1-4.2-0.6-6.3-1c-1.4-0.3-2.5-1.3-2.7-2.7c-0.4-2.1-0.9-4.3-1-6.4c0,2.1-0.6,4.2-1,6.4 C8.8,7.8,7.8,8.8,6.4,9.1C4.2,9.5,2.1,10,0,10.1c2.1,0,4.2,0.6,6.4,1c1.4,0.3,2.5,1.3,2.7,2.7c0.4,2.1,0.9,4.2,1,6.3h0 c0.1-2.1,0.6-4.2,1-6.3c0.3-1.4,1.3-2.5,2.7-2.7C15.8,10.6,17.9,10.1,20,10L20,10z" transform="translate(21.64356959580978,-5.393553151626946) scale(0.6131142827226754)" opacity="0.8363636363636364" fill="#e8b600"></path>
                </g>
            </g>
            <g class="icon-out" style="animation-delay: 0.0875833s;">
                <g class="icon-in" style="transform-origin: -29.1852px -8.61766px; opacity: 1; animation: 1s linear -0.340938s infinite normal forwards running;">
                    <path d="M20,10c-2.1-0.1-4.2-0.6-6.3-1c-1.4-0.3-2.5-1.3-2.7-2.7c-0.4-2.1-0.9-4.3-1-6.4c0,2.1-0.6,4.2-1,6.4 C8.8,7.8,7.8,8.8,6.4,9.1C4.2,9.5,2.1,10,0,10.1c2.1,0,4.2,0.6,6.4,1c1.4,0.3,2.5,1.3,2.7,2.7c0.4,2.1,0.9,4.2,1,6.3h0 c0.1-2.1,0.6-4.2,1-6.3c0.3-1.4,1.3-2.5,2.7-2.7C15.8,10.6,17.9,10.1,20,10L20,10z" transform="translate(-38.24465577455821,-17.677083950265942) scale(0.9059421253036941)" opacity="0.8545454545454545" fill="#e8b600"></path>
                </g>
            </g>
            <g>
                <g class="path" style="transform: matrix(0.01, 0, 0, 0.01, 0, 0); transform-origin: -46.18px 0.156801px; animation: 1s linear 0s 1 normal forwards running;">
                    <path d="M26.30-23.38L26.30-23.38L26.21-21.84L26.21-21.84Q26.21-18.72 29.57-18.72L29.57-18.72L29.57-18.72Q32.35-18.72 35.18-20.64L35.18-20.64L35.18-20.64Q38.02-22.56 38.02-24.53L38.02-24.53L38.02-24.53Q38.02-26.50 35.71-27.84L35.71-27.84L35.71-27.84Q34.18-28.75 30.91-28.75L30.91-28.75L30.91-28.75Q26.06-28.75 20.09-26.45L20.09-26.45L20.09-26.45Q14.11-24.14 8.88-19.06L8.88-19.06L8.88-19.06Q2.02-12.34 2.02-6.72L2.02-6.72L2.02-6.72Q2.02-3.41 4.54-1.39L4.54-1.39L4.54-1.39Q7.06 0.62 11.14 0.62L11.14 0.62L11.14 0.62Q16.80 0.62 24.29-3.65L24.29-3.65L24.29-3.65Q30.53-7.15 33.65-11.09L33.65-11.09L35.04-13.15L35.04-13.15Q34.18-13.15 27.89-12.65L27.89-12.65L27.89-12.65Q21.60-12.14 20.69-11.93L20.69-11.93L20.69-11.93Q19.78-11.71 19.20-11.71L19.20-11.71L19.20-11.71Q17.62-11.71 17.62-12.48L17.62-12.48L17.62-12.48Q17.62-13.68 21.26-14.47L21.26-14.47L21.26-14.47Q24.91-15.26 33.60-15.26L33.60-15.26L33.60-15.26Q42.29-15.26 45.07-14.59L45.07-14.59L45.07-14.59Q45.50-14.50 45.50-14.35L45.50-14.35L45.50-14.35Q45.50-13.82 42.19-13.58L42.19-13.58L42.19-13.58Q38.06-13.25 37.97-13.25L37.97-13.25L37.97-13.25Q33.07-6.82 25.30 6.62L25.30 6.62L25.30 6.62Q24.86 7.39 24.46 7.39L24.46 7.39L24.46 7.39Q24.05 7.39 24.05 6.77L24.05 6.77L24.05 6.77Q24.05 5.09 26.74 0.29L26.74 0.29L30.10-6L30.10-6Q27.02-3.36 22.27-1.06L22.27-1.06L22.27-1.06Q16.08 1.87 10.58 1.87L10.58 1.87L10.58 1.87Q5.09 1.87 2.18-0.50L2.18-0.50L2.18-0.50Q-0.72-2.88-0.72-6.86L-0.72-6.86L-0.72-6.86Q-0.72-14.21 8.16-21.79L8.16-21.79L8.16-21.79Q12.62-25.63 18.96-28.18L18.96-28.18L18.96-28.18Q25.30-30.72 30.07-30.72L30.07-30.72L30.07-30.72Q34.85-30.72 37.39-28.85L37.39-28.85L37.39-28.85Q39.36-27.31 39.36-25.39L39.36-25.39L39.36-25.39Q39.36-22.66 35.98-20.14L35.98-20.14L35.98-20.14Q32.59-17.62 29.28-17.62L29.28-17.62L29.28-17.62Q24.82-17.62 24.82-22.75L24.82-22.75L24.82-22.75Q24.82-24.72 25.63-24.72L25.63-24.72L25.63-24.72Q26.30-24.72 26.30-23.38" fill="#090707" stroke="none" stroke-width="none" transform="translate(-68.56999516487122,11.821800555501662)"></path>
                </g>
                <g class="path" style="transform: matrix(0.01, 0, 0, 0.01, 0, 0); transform-origin: -17.595px 3.7568px; animation: 1s linear 0.0714286s 1 normal forwards running;">
                    <path d="M55.68-14.35L55.68-14.35L56.35-14.50L56.35-14.50Q56.88-14.50 57.36-14.06L57.36-14.06L57.36-14.06Q57.84-13.63 57.84-13.39L57.84-13.39L57.84-13.39Q57.84-13.15 54.86-8.76L54.86-8.76L54.86-8.76Q51.89-4.37 51.89-2.64L51.89-2.64L51.89-2.64Q51.89-2.50 51.94-2.35L51.94-2.35L51.94-2.35Q52.18-1.25 52.99-1.25L52.99-1.25L52.99-1.25Q55.49-1.25 62.11-9.50L62.11-9.50L62.11-9.50Q62.26-9.70 62.45-9.70L62.45-9.70L62.45-9.70Q62.64-9.70 62.64-9.34L62.64-9.34L62.64-9.34Q62.64-8.98 62.21-8.40L62.21-8.40L62.21-8.40Q56.06-0.19 52.85-0.19L52.85-0.19L52.85-0.19Q52.42-0.19 52.03-0.34L52.03-0.34L52.03-0.34Q49.92-1.15 49.92-3.50L49.92-3.50L49.92-3.50Q49.92-4.32 50.11-5.14L50.11-5.14L47.14-2.26L47.14-2.26Q44.30 0.24 43.03 0.24L43.03 0.24L43.03 0.24Q41.76 0.24 40.61-0.58L40.61-0.58L40.61-0.58Q39.31-1.54 39.31-3.12L39.31-3.12L39.31-3.12Q39.31-6.62 44.21-11.50L44.21-11.50L44.21-11.50Q49.10-16.37 53.18-16.37L53.18-16.37L53.18-16.37Q54.77-16.37 55.30-15.26L55.30-15.26L55.30-15.26Q55.44-14.88 55.54-14.62L55.54-14.62L55.54-14.62Q55.63-14.35 55.68-14.35zM41.33-2.54L41.33-2.54L41.33-2.54Q41.33-0.82 42.53-0.82L42.53-0.82L42.53-0.82Q45.31-0.82 50.11-6.91L50.11-6.91L55.20-13.92L55.20-13.92Q54.82-14.59 53.95-14.59L53.95-14.59L53.95-14.59Q51.02-14.59 46.18-10.06L46.18-10.06L46.18-10.06Q41.33-5.52 41.33-2.54" fill="#090707" stroke="none" stroke-width="none" transform="translate(-68.56999516487122,11.821800555501662)"></path>
                </g>
                <g class="path" style="transform: matrix(0.01, 0, 0, 0.01, 0, 0); transform-origin: 6.405px 3.9768px; animation: 1s linear 0.142857s 1 normal forwards running;">
                    <path d="M82.46-0.58L82.46-0.58L82.46-0.58Q79.20-0.58 79.20-3.60L79.20-3.60L79.20-3.60Q79.20-5.33 80.74-8.33L80.74-8.33L80.74-8.33Q82.27-11.33 83.95-13.39L83.95-13.39L83.95-13.39Q80.98-11.95 77.09-8.18L77.09-8.18L77.09-8.18Q73.20-4.42 71.66-0.29L71.66-0.29L71.66-0.29Q71.42 0.10 70.85 0.10L70.85 0.10L70.85 0.10Q69.70 0.10 69.70-1.20L69.70-1.20L69.70-1.20Q70.18-3.84 71.86-7.25L71.86-7.25L71.86-7.25Q72.38-8.35 74.98-13.68L74.98-13.68L74.98-13.68Q71.23-11.23 68.62-8.42L68.62-8.42L68.62-8.42Q66-5.62 63.77-2.78L63.77-2.78L63.77-2.78Q61.54 0.05 61.25 0.05L61.25 0.05L61.25 0.05Q60.62 0.05 60.17-0.53L60.17-0.53L60.17-0.53Q59.71-1.10 59.71-1.68L59.71-1.68L59.71-1.68Q59.71-2.54 62.21-8.02L62.21-8.02L59.33-4.99L59.33-4.99Q58.27-3.94 58.01-3.94L58.01-3.94L58.01-3.94Q57.74-3.94 57.74-4.25L57.74-4.25L57.74-4.25Q57.74-4.56 58.13-4.94L58.13-4.94L58.13-4.94Q59.90-6.72 61.30-8.50L61.30-8.50L61.30-8.50Q62.69-10.27 65.90-14.83L65.90-14.83L65.90-14.83Q66.43-15.55 67.39-15.55L67.39-15.55L67.39-15.55Q68.35-15.55 68.35-14.64L68.35-14.64L68.35-14.64Q68.35-14.30 65.81-9.96L65.81-9.96L65.81-9.96Q63.26-5.62 62.98-4.51L62.98-4.51L62.98-4.51Q64.94-6.67 68.88-10.32L68.88-10.32L68.88-10.32Q74.78-15.79 76.66-15.79L76.66-15.79L76.66-15.79Q77.23-15.79 77.71-15.46L77.71-15.46L77.71-15.46Q78.19-15.12 78.19-14.71L78.19-14.71L78.19-14.71Q78.19-14.30 76.32-11.09L76.32-11.09L76.32-11.09Q74.50-7.78 74.30-7.15L74.30-7.15L74.30-7.15Q79.63-11.62 79.63-11.66L79.63-11.66L79.63-11.66Q84.14-15.17 86.11-15.17L86.11-15.17L86.11-15.17Q86.69-15.17 87.19-14.81L87.19-14.81L87.19-14.81Q87.70-14.45 87.70-13.97L87.70-13.97L87.70-13.97Q87.70-13.87 84.58-9.91L84.58-9.91L84.58-9.91Q81.46-5.95 81.07-3.41L81.07-3.41L81.07-3.41Q80.98-2.54 81.41-2.11L81.41-2.11L81.41-2.11Q81.84-1.68 82.97-1.68L82.97-1.68L82.97-1.68Q84.10-1.68 86.28-3.24L86.28-3.24L86.28-3.24Q88.46-4.80 90.72-7.44L90.72-7.44L90.72-7.44Q91.58-8.40 91.90-8.40L91.90-8.40L91.90-8.40Q92.21-8.40 92.21-8.16L92.21-8.16L92.21-8.16Q92.21-7.82 91.78-7.39L91.78-7.39L91.78-7.39Q89.42-4.56 86.71-2.57L86.71-2.57L86.71-2.57Q84-0.58 82.46-0.58" fill="#090707" stroke="none" stroke-width="none" transform="translate(-68.56999516487122,11.821800555501662)"></path>
                </g>
                <g class="path" style="transform: matrix(0.01, 0, 0, 0.01, 0, 0); transform-origin: 28.075px 4.5468px; animation: 1s linear 0.214286s 1 normal forwards running;">
                    <path d="M92.26 0.62L92.26 0.62L92.26 0.62Q91.73 0.62 91.30 0.48L91.30 0.48L91.30 0.48Q88.22-0.38 88.22-2.98L88.22-2.98L88.22-2.98Q88.22-6.34 92.45-10.75L92.45-10.75L92.45-10.75Q96.67-15.17 100.03-15.17L100.03-15.17L100.03-15.17Q101.14-15.17 101.83-14.57L101.83-14.57L101.83-14.57Q102.53-13.97 102.53-13.10L102.53-13.10L102.53-13.10Q102.53-10.42 98.47-7.97L98.47-7.97L98.47-7.97Q94.42-5.52 91.87-5.52L91.87-5.52L91.87-5.52Q91.49-5.52 91.20-5.62L91.20-5.62L91.20-5.62Q90.48-4.32 90.48-2.88L90.48-2.88L90.48-2.88Q90.48-0.38 92.86-0.38L92.86-0.38L92.86-0.38Q95.23-0.38 99.02-3.60L99.02-3.60L99.02-3.60Q101.95-5.95 104.02-8.59L104.02-8.59L104.02-8.59Q104.45-9.17 104.76-9.17L104.76-9.17L104.76-9.17Q105.07-9.17 105.07-8.88L105.07-8.88L105.07-8.88Q105.07-8.59 104.69-8.06L104.69-8.06L104.69-8.06Q102.10-4.66 98.45-2.02L98.45-2.02L98.45-2.02Q94.80 0.62 92.26 0.62zM101.33-13.20L101.33-13.20L101.33-13.20Q101.33-13.78 100.10-13.78L100.10-13.78L100.10-13.78Q98.88-13.78 96.62-11.90L96.62-11.90L96.62-11.90Q93.60-9.41 91.92-6.67L91.92-6.67L91.92-6.67Q92.21-6.58 92.54-6.58L92.54-6.58L92.54-6.58Q94.37-6.58 97.42-8.52L97.42-8.52L97.42-8.52Q100.46-10.46 101.23-12.77L101.23-12.77L101.23-12.77Q101.33-13.01 101.33-13.20" fill="#090707" stroke="none" stroke-width="none" transform="translate(-68.56999516487122,11.821800555501662)"></path>
                </g>
                <g class="path" style="transform: matrix(0.01, 0, 0, 0.01, 0, 0); transform-origin: 42.935px 2.2018px; animation: 1s linear 0.285714s 1 normal forwards running;">
                    <path d="M112.51-1.73L110.98-0.72L110.98-0.72Q109.58 0.10 107.54 0.10L107.54 0.10L107.54 0.10Q105.50 0.10 104.42-1.25L104.42-1.25L104.42-1.25Q103.34-2.59 102.58-5.52L102.58-5.52L102.58-5.52Q101.71-4.66 101.38-4.66L101.38-4.66L101.38-4.66Q101.14-4.66 101.14-4.99L101.14-4.99L101.14-4.99Q101.14-5.33 101.38-5.57L101.38-5.57L101.38-5.57Q102.96-7.54 106.75-11.23L106.75-11.23L112.80-16.90L112.80-16.90Q115.39-19.34 115.87-19.34L115.87-19.34L115.87-19.34Q117.41-19.34 117.41-18.19L117.41-18.19L117.41-18.19Q117.41-17.62 116.95-17.06L116.95-17.06L116.95-17.06Q116.50-16.51 116.28-16.20L116.28-16.20L116.28-16.20Q116.06-15.89 115.82-15.60L115.82-15.60L115.82-15.60Q114.96-14.11 114.07-9.46L114.07-9.46L114.07-9.46Q113.18-4.80 112.70-2.98L112.70-2.98L112.70-2.98Q116.69-3.02 120.91-8.16L120.91-8.16L120.91-8.16Q121.39-8.64 121.63-8.64L121.63-8.64L121.63-8.64Q121.87-8.64 121.87-8.33L121.87-8.33L121.87-8.33Q121.87-8.02 121.44-7.49L121.44-7.49L121.44-7.49Q118.66-4.22 116.26-2.93L116.26-2.93L116.26-2.93Q114.82-2.21 112.51-1.73L112.51-1.73zM104.50-6.05L104.50-6.05L104.50-6.05Q104.50-4.42 105.58-3.38L105.58-3.38L105.58-3.38Q106.66-2.35 108.00-2.35L108.00-2.35L108.00-2.35Q109.34-2.35 110.06-2.88L110.06-2.88L110.06-2.88Q111.02-3.41 111.96-7.30L111.96-7.30L111.96-7.30Q112.90-11.18 113.09-14.16L113.09-14.16L113.28-15.79L113.28-15.79Q110.64-13.82 107.64-10.70L107.64-10.70L107.64-10.70Q104.64-7.58 104.54-6.58L104.54-6.58L104.54-6.58Q104.50-6.29 104.50-6.05" fill="#090707" stroke="none" stroke-width="none" transform="translate(-68.56999516487122,11.821800555501662)"></path>
                </g>
                <g class="path" style="transform: matrix(0.01, 0, 0, 0.01, 0, 0); transform-origin: 72.6242px -1.7382px; animation: 1s linear 0.357143s 1 normal forwards running;">
                    <path d="M135.55-5.62L135.55-5.62L135.55-5.62Q135.22-5.62 135.36-6.53L135.36-6.53L135.36-6.53Q135.94-9.84 139.82-15.67L139.82-15.67L139.82-15.67Q143.71-21.50 145.10-21.50L145.10-21.50L145.10-21.50Q145.68-21.50 146.38-21.29L146.38-21.29L146.38-21.29Q147.07-21.07 147.07-20.69L147.07-20.69L147.07-20.69Q147.07-20.54 146.88-20.35L146.88-20.35L146.88-20.35Q144.86-18.24 140.95-13.08L140.95-13.08L140.95-13.08Q137.04-7.92 136.54-6.77L136.54-6.77L136.54-6.77Q136.03-5.62 135.55-5.62" fill="#090707" stroke="none" stroke-width="none" transform="translate(-68.56999516487122,11.821800555501662)"></path>
                </g>
                <g class="path" style="transform: matrix(0.01, 0, 0, 0.01, 0, 0); transform-origin: 65.93px 10.1868px; animation: 1s linear 0.428571s 1 normal forwards running;">
                    <path d="M134.45-3.17L134.45-3.17Q135.17-3.17 135.79-2.71L135.79-2.71L135.79-2.71Q136.42-2.26 136.42-1.63L136.42-1.63L136.42-1.63Q136.42-1.01 135.82-0.55L135.82-0.55L135.82-0.55Q135.22-0.10 134.50-0.10L134.50-0.10L134.50-0.10Q133.78-0.10 133.18-0.62L133.18-0.62L133.18-0.62Q132.58-1.15 132.58-1.82L132.58-1.82L132.58-1.82Q132.58-3.17 134.45-3.17L134.45-3.17" fill="#090707" stroke="none" stroke-width="none" transform="translate(-68.56999516487122,11.821800555501662)"></path>
                </g>
            </g>
            <g class="icon-out" style="animation-delay: 0.0686328s;">
                <g class="icon-in" style="transform-origin: -69.1979px -8.06868px; opacity: 1; animation: 1s linear -0.468942s infinite normal forwards running;">
                    <path d="M20,10c-2.1-0.1-4.2-0.6-6.3-1c-1.4-0.3-2.5-1.3-2.7-2.7c-0.4-2.1-0.9-4.3-1-6.4c0,2.1-0.6,4.2-1,6.4 C8.8,7.8,7.8,8.8,6.4,9.1C4.2,9.5,2.1,10,0,10.1c2.1,0,4.2,0.6,6.4,1c1.4,0.3,2.5,1.3,2.7,2.7c0.4,2.1,0.9,4.2,1,6.3h0 c0.1-2.1,0.6-4.2,1-6.3c0.3-1.4,1.3-2.5,2.7-2.7C15.8,10.6,17.9,10.1,20,10L20,10z" transform="translate(-73.30619362321971,-12.176947843687405) scale(0.41082725919586605)" opacity="0.8727272727272727" fill="#e8b600"></path>
                </g>
            </g>
            <g class="icon-out" style="animation-delay: 0.164365s;">
                <g class="icon-in" style="transform-origin: 72.5832px 9.06419px; opacity: 1; animation: 1s linear -0.0810309s infinite normal forwards running;">
                    <path d="M20,10c-2.1-0.1-4.2-0.6-6.3-1c-1.4-0.3-2.5-1.3-2.7-2.7c-0.4-2.1-0.9-4.3-1-6.4c0,2.1-0.6,4.2-1,6.4 C8.8,7.8,7.8,8.8,6.4,9.1C4.2,9.5,2.1,10,0,10.1c2.1,0,4.2,0.6,6.4,1c1.4,0.3,2.5,1.3,2.7,2.7c0.4,2.1,0.9,4.2,1,6.3h0 c0.1-2.1,0.6-4.2,1-6.3c0.3-1.4,1.3-2.5,2.7-2.7C15.8,10.6,17.9,10.1,20,10L20,10z" transform="translate(67.51700416733048,3.99796034204219) scale(0.5066225635697216)" opacity="0.8909090909090909" fill="#e8b600"></path>
                </g>
            </g>
            <g class="icon-out" style="animation-delay: 0.397196s;">
                <g class="icon-in" style="transform-origin: 12.5459px 11.4311px; opacity: 1; animation: 1s linear -0.212156s infinite normal forwards running;">
                    <path d="M20,10c-2.1-0.1-4.2-0.6-6.3-1c-1.4-0.3-2.5-1.3-2.7-2.7c-0.4-2.1-0.9-4.3-1-6.4c0,2.1-0.6,4.2-1,6.4 C8.8,7.8,7.8,8.8,6.4,9.1C4.2,9.5,2.1,10,0,10.1c2.1,0,4.2,0.6,6.4,1c1.4,0.3,2.5,1.3,2.7,2.7c0.4,2.1,0.9,4.2,1,6.3h0 c0.1-2.1,0.6-4.2,1-6.3c0.3-1.4,1.3-2.5,2.7-2.7C15.8,10.6,17.9,10.1,20,10L20,10z" transform="translate(8.20201014541869,7.087189907175396) scale(0.4343905782657897)" opacity="0.9090909090909091" fill="#e8b600"></path>
                </g>
            </g>
            <g class="icon-out" style="animation-delay: 0.203875s;">
                <g class="icon-in" style="transform-origin: -22.7113px 17.5701px; opacity: 1; animation: 1s linear -0.43779s infinite normal forwards running;">
                    <path d="M20,10c-2.1-0.1-4.2-0.6-6.3-1c-1.4-0.3-2.5-1.3-2.7-2.7c-0.4-2.1-0.9-4.3-1-6.4c0,2.1-0.6,4.2-1,6.4 C8.8,7.8,7.8,8.8,6.4,9.1C4.2,9.5,2.1,10,0,10.1c2.1,0,4.2,0.6,6.4,1c1.4,0.3,2.5,1.3,2.7,2.7c0.4,2.1,0.9,4.2,1,6.3h0 c0.1-2.1,0.6-4.2,1-6.3c0.3-1.4,1.3-2.5,2.7-2.7C15.8,10.6,17.9,10.1,20,10L20,10z" transform="translate(-28.34412118812856,11.937282431413752) scale(0.5632846483003179)" opacity="0.9272727272727272" fill="#e8b600"></path>
                </g>
            </g>
            <g class="icon-out" style="animation-delay: 0.335695s;">
                <g class="icon-in" style="transform-origin: -102.228px 10.5518px; opacity: 1; animation: 1s linear -0.435604s infinite normal forwards running;">
                    <path d="M20,10c-2.1-0.1-4.2-0.6-6.3-1c-1.4-0.3-2.5-1.3-2.7-2.7c-0.4-2.1-0.9-4.3-1-6.4c0,2.1-0.6,4.2-1,6.4 C8.8,7.8,7.8,8.8,6.4,9.1C4.2,9.5,2.1,10,0,10.1c2.1,0,4.2,0.6,6.4,1c1.4,0.3,2.5,1.3,2.7,2.7c0.4,2.1,0.9,4.2,1,6.3h0 c0.1-2.1,0.6-4.2,1-6.3c0.3-1.4,1.3-2.5,2.7-2.7C15.8,10.6,17.9,10.1,20,10L20,10z" transform="translate(-111.2455761197937,1.534114659212491) scale(0.9017708721489561)" opacity="0.9454545454545454" fill="#e8b600"></path>
                </g>
            </g>
            <g class="icon-out" style="animation-delay: 0.0450597s;">
                <g class="icon-in" style="transform-origin: 36.7781px -1.37562px; opacity: 1; animation: 1s linear -0.00651689s infinite normal forwards running;">
                    <path d="M20,10c-2.1-0.1-4.2-0.6-6.3-1c-1.4-0.3-2.5-1.3-2.7-2.7c-0.4-2.1-0.9-4.3-1-6.4c0,2.1-0.6,4.2-1,6.4 C8.8,7.8,7.8,8.8,6.4,9.1C4.2,9.5,2.1,10,0,10.1c2.1,0,4.2,0.6,6.4,1c1.4,0.3,2.5,1.3,2.7,2.7c0.4,2.1,0.9,4.2,1,6.3h0 c0.1-2.1,0.6-4.2,1-6.3c0.3-1.4,1.3-2.5,2.7-2.7C15.8,10.6,17.9,10.1,20,10L20,10z" transform="translate(27.77347608224114,-10.380211857109682) scale(0.9004592214874976)" opacity="0.9636363636363636" fill="#e8b600"></path>
                </g>
            </g>
            <g class="icon-out" style="animation-delay: 0.222531s;">
                <g class="icon-in" style="transform-origin: -95.2109px 10.6529px; opacity: 1; animation: 1s linear -0.413454s infinite normal forwards running;">
                    <path d="M20,10c-2.1-0.1-4.2-0.6-6.3-1c-1.4-0.3-2.5-1.3-2.7-2.7c-0.4-2.1-0.9-4.3-1-6.4c0,2.1-0.6,4.2-1,6.4 C8.8,7.8,7.8,8.8,6.4,9.1C4.2,9.5,2.1,10,0,10.1c2.1,0,4.2,0.6,6.4,1c1.4,0.3,2.5,1.3,2.7,2.7c0.4,2.1,0.9,4.2,1,6.3h0 c0.1-2.1,0.6-4.2,1-6.3c0.3-1.4,1.3-2.5,2.7-2.7C15.8,10.6,17.9,10.1,20,10L20,10z" transform="translate(-101.06021363369788,4.8035350027477355) scale(0.5849357341690941)" opacity="0.9818181818181818" fill="#e8b600"></path>
                </g>
            </g>
        </g>
    </g>
</svg> -->

<svg xmlns="http://www.w3.org/2000/svg" xmlns:xlink="http://www.w3.org/1999/xlink" style="margin:auto;background:transparent;display:block;" width="320px" height="320px" viewBox="0 0 320 320" preserveAspectRatio="xMidYMid">
    <text x="150" y="150" text-anchor="middle" dy="0.38em" fill="none" stroke-linecap="round" stroke-linejoin="round" stroke="#fff" stroke-width="1" font-size="40" font-family="arial" style="stroke: #fff;">
        La Mater Gère
        <animate attributeName="stroke-dasharray" repeatCount="indefinite" calcMode="spline" dur="8.333333333333332s" values="0 92;92 92;0 92" keyTimes="0;0.5;1" keySplines="0.3 0 0.7 1;0.3 0 0.7 1" />
        <animate attributeName="stroke-dashoffset" repeatCount="indefinite" dur="8.333333333333332s" values="0;0;-92" keyTimes="0;0.5;1" />
    </text>
</svg>